<svg width="1439" height="377" viewBox="0 0 1439 377" fill="none" xmlns="http://www.w3.org/2000/svg">
<path d="M0 13.9781C0 13.9781 209.332 -15.4764 338.336 13.9781C354.495 17.6676 363.998 30.6891 379.451 24.5774C383.789 22.8614 385.478 20.3295 389.729 18.3945C408.823 9.7042 422.007 23.1969 442.835 24.5774C470.542 26.4139 486.236 26.6322 513.929 24.5774C526.677 23.6315 533.844 19.0472 546.477 21.0443C553.381 22.1357 556.796 24.7559 563.608 26.344C594.418 33.5258 612.55 17.4532 644.124 18.3945C668.385 19.1178 681.634 23.96 705.795 26.344C791.707 34.821 841.248 36.4209 926.785 24.5774C939.866 22.7662 947.307 16.3175 960.19 19.2778C965.253 20.4412 967.607 22.72 972.61 24.1358C985.998 27.9248 994.294 23.8004 1008.16 24.5774C1016.53 25.047 1021.19 25.8453 1029.57 26.344C1070.03 28.7528 1092.69 20.4827 1133.21 21.0443C1173.13 21.5976 1439 28.9938 1439 28.9938V377H0V13.9781Z" fill="url(#paint0_linear_185_938)"/>
<defs>
<linearGradient id="paint0_linear_185_938" x1="617.571" y1="0.887205" x2="617.571" y2="261.59" gradientUnits="userSpaceOnUse">
<stop stop-color="#3F3F3F"/>
<stop offset="1" stop-color="#D1D1D1"/>
</linearGradient>
</defs>
</svg>
