<svg width="257" height="139" viewBox="0 0 257 139" fill="none" xmlns="http://www.w3.org/2000/svg">
<path d="M14.7423 76.5613C14.7423 76.5613 41.3505 34.7158 67.1524 19.3725C89.4591 6.10764 105.123 -2.44702 130.635 1.07204C148.044 3.47334 155.662 12.6432 171.973 19.3725C200.336 31.0745 226.823 21.3317 245.79 46.0606C266.057 72.486 250.957 132.225 250.957 132.225C250.957 132.225 185.319 138.204 143.922 132.225C126.453 129.702 117.198 121.424 99.6319 123.075C84.742 124.474 78.0914 132.852 63.4616 136.038C39.4852 141.259 0.717109 136.038 0.717109 136.038C0.717109 136.038 -0.537546 113.106 3.66979 99.4369C6.59961 89.9186 14.7423 76.5613 14.7423 76.5613Z" fill="#191515"/>
</svg>
