<svg width="910" height="121" viewBox="0 0 910 121" fill="none" xmlns="http://www.w3.org/2000/svg">
<g filter="url(#filter0_f_185_939)">
<path d="M368.518 28.0652C384.004 43.6842 402.213 28.0652 423.804 28.0652C439.925 28.0652 448.978 28.7776 465.084 28.0652C487.635 27.0678 500.223 25.1581 522.581 21.9429C535.286 20.116 542.195 16.197 555.016 16.5859C565.851 16.9146 571.557 20.3618 582.29 21.9429C625.659 28.3319 694.336 16.5859 694.336 16.5859L739.302 37.2487C739.302 37.2487 718.832 44.5216 705.393 47.9628C673.324 56.1742 654.352 59.537 621.359 57.9116C610.085 57.3562 603.859 55.8003 592.61 54.8504C549.284 51.1919 524.052 46.6833 481.301 54.8504C469.078 57.1855 462.765 62.1376 450.341 62.5033C436.232 62.9186 429.018 56.138 414.958 54.8504C396.856 53.1925 368.518 57.9116 368.518 57.9116C368.518 57.9116 401.998 65.4222 423.804 67.0948C442.752 68.5482 453.472 67.9238 472.455 67.0948C498.47 65.9587 512.79 61.4959 538.798 60.2072C562.665 59.0246 576.099 60.9562 599.981 60.2072C628.82 59.3028 673.696 55.0977 673.696 55.0977C673.696 55.0977 690.905 54.5995 701.708 52.5543C713.806 50.2638 720.012 46.518 731.93 43.3708C739.375 41.405 743.425 38.3685 751.096 38.7791C757.375 39.1151 760.429 41.9991 766.576 43.3708C785.996 47.7045 797.616 42.0574 817.439 43.3708C853.054 45.7305 907.371 60.2072 907.371 60.2072C907.371 60.2072 853.518 65.421 818.914 67.0948C800.788 67.9715 789.299 75.6782 772.473 68.6254C766.613 66.1688 764.781 60.5187 758.468 60.2072C753.284 59.9514 751.052 63.89 745.936 64.7989C735.86 66.5894 730.352 59.8382 720.136 60.2072C706.216 60.71 700.145 71.1238 686.227 71.6865C677.521 72.0385 672.826 68.68 664.113 68.6254C653.935 68.5616 648.434 71.3351 638.313 72.4518C615.691 74.9479 602.809 73.0121 580.078 73.9824C559.337 74.8678 547.687 75.2014 527.004 77.0436C511.135 78.4569 486.461 81.6353 486.461 81.6353L438.547 87.7576C438.547 87.7576 412.485 88.1257 395.792 87.7576C376.777 87.3384 366.098 83.8643 347.141 85.4618C332.564 86.6901 324.889 91.5601 310.283 92.3494C289.709 93.4612 278.518 86.6295 257.946 85.4618C214.042 82.9696 145.9 96.9411 145.9 96.9411C145.9 96.9411 117.273 111.971 97.3338 115.369C80.0074 118.322 69.2857 120.216 52.365 115.369C40.2575 111.901 36.0539 98.9216 23.585 100.529C13.5323 101.825 2 115.369 2 115.369V2.21344C2 2.21344 15.1817 4.77877 23.585 6.63706C39.1381 10.0764 47.4347 19.0724 63.1575 16.5859C72.9219 15.0417 76.962 9.12577 86.5413 6.63706C109.132 0.767913 145.9 12.7594 145.9 12.7594C145.9 12.7594 157.444 16.5314 165.066 16.5859C172.97 16.6423 177.071 13.0975 184.969 12.7594C195.138 12.3241 200.607 15.9999 210.769 16.5859C235.2 17.9945 248.717 1.54043 272.689 6.63708C280.092 8.21097 283.78 10.8838 291.118 12.7594C316.834 19.3334 340.601 -7.08306 358.935 12.7594C363.689 17.9042 363.593 23.0976 368.518 28.0652Z" fill="url(#paint0_linear_185_939)"/>
</g>
<defs>
<filter id="filter0_f_185_939" x="0.2" y="0.41344" width="908.971" height="119.723" filterUnits="userSpaceOnUse" color-interpolation-filters="sRGB">
<feFlood flood-opacity="0" result="BackgroundImageFix"/>
<feBlend mode="normal" in="SourceGraphic" in2="BackgroundImageFix" result="shape"/>
<feGaussianBlur stdDeviation="0.9" result="effect1_foregroundBlur_185_939"/>
</filter>
<linearGradient id="paint0_linear_185_939" x1="908.108" y1="51.3043" x2="2" y2="51.3043" gradientUnits="userSpaceOnUse">
<stop/>
<stop offset="1" stop-opacity="0.7"/>
</linearGradient>
</defs>
</svg>
