<svg width="1121" height="325" viewBox="0 0 1121 325" fill="none" xmlns="http://www.w3.org/2000/svg">
<g filter="url(#filter0_f_185_1017)">
<ellipse cx="416.898" cy="121.991" rx="22.8595" ry="1.51937" fill="black"/>
</g>
<path d="M425.01 114.39C425.01 114.39 428.085 112.805 430.171 112.108C436.205 110.093 446.394 111.348 446.394 111.348L456.718 109.827L461.88 117.431L458.193 121.993L445.657 124.274L426.484 123.514H422.06L425.01 114.39Z" fill="#2A2220"/>
<path d="M461.88 117.431L456.718 109.827L450.082 114.39L445.657 124.274L458.193 121.993L461.88 117.431Z" fill="#827876"/>
<path d="M0 16.877L27.2839 0.908936L124.621 5.47123L156.329 16.877L176.239 29.8035C176.239 29.8035 181.882 49.5725 177.714 60.9791C169.429 83.6567 120.197 79.2283 120.197 79.2283L36.8702 82.2698H0V16.877Z" fill="#131211"/>
<path d="M568.215 280.283L572.639 281.804L585.175 294.731L599.923 312.98L591.812 318.302H577.064L568.215 319.823L548.305 320.584C548.305 320.584 534.294 312.98 534.294 311.459C534.295 309.938 540.931 302.334 540.931 302.334C540.931 302.334 547.264 303.328 549.78 300.814C551.939 298.656 551.992 293.21 551.992 293.21L568.215 280.283Z" fill="#191515"/>
<g filter="url(#filter1_f_185_1017)">
<path d="M588.862 316.021L584.438 318.302C584.438 318.302 539.097 322.92 509.96 322.865C493.824 322.834 468.666 324.284 468.666 321.344C468.666 318.404 499.916 319.813 519.547 316.021C527.375 314.509 531.558 312.519 539.456 311.459C558.666 308.882 588.862 316.021 588.862 316.021Z" fill="black"/>
</g>
<path d="M572.639 281.804L568.215 280.283L572.639 293.21L569.69 297.772L580.751 311.459L591.812 318.302L599.923 312.98L585.175 294.731L572.639 281.804Z" fill="#AB9EA1"/>
<path d="M568.216 319.823L577.065 318.302H591.813L580.752 311.459L569.691 297.772L549.781 300.813C547.265 303.328 540.932 302.334 540.932 302.334C540.932 302.334 534.295 309.938 534.295 311.459C534.295 312.98 548.306 320.583 548.306 320.583L568.216 319.823Z" fill="#312520"/>
<g filter="url(#filter2_f_185_1017)">
<path d="M226.747 85.3111L252.927 89.8734L241.129 92.1546L226.747 93.6753L207.84 95.9565H169.124L159.22 93.6753L142.113 89.8734L102.497 80.7489L118.052 59.4582L152.918 70.8639L193.357 65.5412L193.434 77.7073L207.84 85.3111H226.747Z" fill="black"/>
</g>
<path d="M204.259 31.3241L219.448 28.2825C219.448 28.2825 222.882 24.521 225.643 22.9599C234.321 18.0535 240.867 27.77 250.715 26.7618C256.623 26.1569 261.699 26.49 268.413 28.2825C288.52 33.6508 306.02 67.062 306.02 67.062L278.736 73.1451L280.948 80.7489L271.362 89.8735L255.139 93.6754L223.431 89.8735H207.946L185.823 80.7489L193.935 56.4167L204.259 31.3241Z" fill="#404145"/>
<path d="M223.43 89.8731C223.43 89.8731 242.744 95.0571 255.138 93.675C261.598 92.9548 265.184 91.9488 271.361 89.8731C275.785 88.3868 280.354 89.6078 282.422 85.3108C284.569 80.8522 278.735 73.1447 278.735 73.1447L255.138 69.3428L233.016 76.9466L219.006 73.1447H199.833L207.945 89.8731H223.43Z" fill="#494A4F"/>
<path d="M306.02 67.0617C306.02 67.0617 288.52 33.6505 268.413 28.2822C261.699 26.4897 257.351 26.0012 250.715 26.7614L278.736 73.1448C293.755 73.2123 300.525 72.3274 306.02 67.0617Z" fill="#2E2F33"/>
<g filter="url(#filter3_f_185_1017)">
<path d="M1109.16 127.892H1092.28C1092.28 127.892 1074.5 126.87 1074.5 125.61C1074.5 124.351 1092.28 123.329 1092.28 123.329L1101.16 124.09L1109.16 127.892Z" fill="black"/>
</g>
<path d="M1089.99 117.246L1107.69 114.965L1118.75 121.048L1120.22 127.891H1107.69L1101.05 126.371L1089.99 117.246Z" fill="#8F8888"/>
<path d="M1120.22 127.891L1118.75 121.048L1107.69 114.965L1104.74 121.048L1107.69 127.891H1120.22Z" fill="#BAB7B6"/>
<defs>
<filter id="filter0_f_185_1017" x="393.039" y="119.472" width="47.719" height="5.03876" filterUnits="userSpaceOnUse" color-interpolation-filters="sRGB">
<feFlood flood-opacity="0" result="BackgroundImageFix"/>
<feBlend mode="normal" in="SourceGraphic" in2="BackgroundImageFix" result="shape"/>
<feGaussianBlur stdDeviation="0.5" result="effect1_foregroundBlur_185_1017"/>
</filter>
<filter id="filter1_f_185_1017" x="467.666" y="309.898" width="122.197" height="14.2972" filterUnits="userSpaceOnUse" color-interpolation-filters="sRGB">
<feFlood flood-opacity="0" result="BackgroundImageFix"/>
<feBlend mode="normal" in="SourceGraphic" in2="BackgroundImageFix" result="shape"/>
<feGaussianBlur stdDeviation="0.5" result="effect1_foregroundBlur_185_1017"/>
</filter>
<filter id="filter2_f_185_1017" x="99.7971" y="56.7582" width="155.83" height="41.8983" filterUnits="userSpaceOnUse" color-interpolation-filters="sRGB">
<feFlood flood-opacity="0" result="BackgroundImageFix"/>
<feBlend mode="normal" in="SourceGraphic" in2="BackgroundImageFix" result="shape"/>
<feGaussianBlur stdDeviation="1.35" result="effect1_foregroundBlur_185_1017"/>
</filter>
<filter id="filter3_f_185_1017" x="1073.1" y="121.929" width="37.4577" height="7.36226" filterUnits="userSpaceOnUse" color-interpolation-filters="sRGB">
<feFlood flood-opacity="0" result="BackgroundImageFix"/>
<feBlend mode="normal" in="SourceGraphic" in2="BackgroundImageFix" result="shape"/>
<feGaussianBlur stdDeviation="0.7" result="effect1_foregroundBlur_185_1017"/>
</filter>
</defs>
</svg>
