<svg width="355" height="458" viewBox="0 0 355 458" fill="none" xmlns="http://www.w3.org/2000/svg">
<g filter="url(#filter0_f_185_942)">
<path d="M342.836 404.133C342.836 404.133 339.012 403.803 336.937 402.612C334.862 401.421 326.277 404.977 319.976 407.935C312.78 411.314 310.161 415.848 303.016 419.341C298.57 421.515 291.218 423.903 291.218 423.903C291.218 423.903 275.053 422.54 264.671 422.382C260.928 422.326 251.398 422.382 251.398 422.382C251.76 425.938 252.036 427.97 253.61 432.267L266.883 442.157C277.795 443.197 319.239 442.152 331.037 442.152C339.981 439.359 347.813 437.543 350.947 428.465C354.215 418.999 351.72 408.262 342.836 404.133Z" fill="black"/>
</g>
<path d="M267.621 346.345L314.077 344.824L318.502 349.386L320.714 387.406C320.714 387.406 324.349 392.484 327.351 395.009C331.144 398.201 333.911 398.509 338.412 401.092C340.487 402.283 342.146 401.607 344.311 402.613C353.195 406.742 355.691 417.479 352.423 426.945C349.289 436.023 341.456 437.839 332.513 440.632C320.714 440.632 304.492 439.112 304.492 439.112L255.086 430.747C252.396 423.225 251.434 417.296 255.086 410.217C258.064 404.443 263.623 404.648 267.621 399.572C280.331 383.437 267.621 346.345 267.621 346.345Z" fill="#B8C7E2"/>
<path d="M267.621 346.343C267.621 346.343 266.147 388.925 262.46 400.331C259.974 404.472 258.064 404.442 255.086 410.216C251.434 417.294 252.396 423.223 255.086 430.746L304.492 439.11C304.492 439.11 310.845 428.95 311.128 421.621C311.443 413.458 308.095 409.127 304.492 401.851C301.839 396.497 297.372 394.85 296.38 388.925C294.911 380.156 284.975 370.536 288.268 362.311C290.494 356.754 281.632 356.228 281.632 356.228C273.508 353.983 267.621 346.343 267.621 346.343Z" fill="#9DA2AD"/>
<path d="M344.312 402.613C344.312 402.613 340.487 402.284 338.412 401.092C336.337 399.901 327.753 403.457 321.452 406.415C314.255 409.794 311.637 414.328 304.492 417.821C300.045 419.995 292.693 422.383 292.693 422.383C292.693 422.383 276.529 421.02 266.147 420.862C262.404 420.806 252.874 420.863 252.874 420.863C253.236 424.418 253.511 426.451 255.086 430.748L304.492 439.112C315.403 440.151 320.715 440.632 332.513 440.632C341.457 437.84 349.289 436.023 352.423 426.946C355.691 417.479 353.195 406.742 344.312 402.613Z" fill="#3F687E"/>
<path d="M321.451 406.415C321.451 406.415 331.869 414.663 333.986 422.383C335.874 429.265 332.512 440.632 332.512 440.632" stroke="#33586B"/>
<path d="M334.724 401.852C334.724 401.852 345.142 409.733 347.259 417.11C349.147 423.686 344.785 435.579 344.785 435.579" stroke="#33586B"/>
<path d="M286.793 367.906C286.793 366.968 287.602 366.248 288.503 366.382C292.766 367.015 304.086 368.492 311.865 367.636C315.349 367.252 319.977 366.115 319.977 366.115L320.714 379.802C320.714 379.802 315.349 380.939 311.865 381.323C303.773 382.214 291.849 380.579 288.023 379.997C287.308 379.888 286.793 379.255 286.793 378.51V367.906Z" fill="#DADBDF"/>
<path d="M284.88 389.721C284.71 390.5 285.146 391.277 285.892 391.49C290.172 392.715 303.983 396.373 313.483 395.505C325.976 394.363 323.664 390.446 323.664 390.446L320.713 382.843C320.713 382.843 321.437 383.568 311.528 384.46C303.614 385.173 292.133 382.84 288.111 381.942C287.307 381.762 286.506 382.28 286.325 383.107L284.88 389.721Z" fill="#EBECF1"/>
<path d="M41.2427 42.9534L128.994 37.6307L135.63 103.024L52.3037 111.388L41.2427 42.9534Z" fill="#F7F5F6"/>
<path d="M52.3022 111.388L135.629 103.023V104.544L53.0396 112.908L52.3022 111.388Z" fill="#B6B2B2"/>
<path d="M41.2427 42.9538C41.2427 42.9538 54.3656 40.9015 62.6274 42.1934C79.0845 44.7668 87.7059 52.13 99.4975 64.2445C111.921 77.0087 121.62 104.545 121.62 104.545L52.3037 111.388L41.2427 42.9538Z" fill="#D4D4D4"/>
<path d="M0.475319 70.7756C-0.269235 67.3813 1.3159 63.899 4.32385 62.3209L41.2413 42.9531L52.3023 111.387L13.22 128.876L0.475319 70.7756Z" fill="#CFCECE"/>
<path d="M204.208 363.074H258.776L263.201 366.116L257.301 404.135C257.301 404.135 260.936 409.213 263.938 411.739C267.731 414.93 270.498 415.238 274.999 417.822C277.074 419.013 278.733 418.336 280.898 419.343C289.782 423.472 292.278 434.209 289.01 443.675C285.876 452.753 278.043 454.569 269.1 457.362C257.301 457.362 241.079 455.841 241.079 455.841L191.672 447.477C188.983 439.954 188.021 434.025 191.672 426.946C194.651 421.173 200.21 421.377 204.208 416.301C216.918 400.167 204.208 363.074 204.208 363.074Z" fill="#B8C7E2"/>
<path d="M204.208 363.074C204.208 363.074 202.733 405.656 199.046 417.061C196.561 421.203 194.651 421.173 191.672 426.946C188.021 434.025 188.983 439.954 191.672 447.477L241.079 455.841C241.079 455.841 247.432 445.68 247.715 438.352C248.03 430.188 244.682 425.858 241.079 418.582C238.426 413.227 233.959 411.581 232.967 405.656C231.498 396.887 239.26 393.35 242.553 385.125C244.779 379.568 253.546 370.605 247.715 370.678C244.75 370.716 243.81 373.292 241.079 374.48C233.87 377.615 228.725 378.85 221.169 376.761C213.045 374.515 204.208 363.074 204.208 363.074Z" fill="#9DA2AD"/>
<path d="M280.896 419.342C278.868 418.173 277.869 419.204 274.996 417.822C272.124 416.439 264.337 420.186 258.036 423.144C250.839 426.523 248.221 431.057 241.076 434.55C236.629 436.724 229.277 439.112 229.277 439.112C229.277 439.112 213.113 437.749 202.731 437.591C198.988 437.535 189.331 437.592 189.331 437.592C189.693 441.147 190.095 443.18 191.67 447.477L241.076 455.841C251.988 456.88 257.299 457.361 269.097 457.361C278.041 454.568 285.873 452.752 289.007 443.675C292.275 434.208 289.779 423.471 280.896 419.342Z" fill="#3F687E"/>
<path d="M258.038 423.145C258.038 423.145 268.456 431.393 270.573 439.113C272.461 445.994 269.099 457.362 269.099 457.362" stroke="#33586B"/>
<path d="M271.311 418.582C271.311 418.582 281.729 426.463 283.846 433.84C285.734 440.416 281.372 452.309 281.372 452.309" stroke="#33586B"/>
<path d="M115.719 78.6922C117.9 77.9267 119.317 78.5887 121.618 78.6922C146.782 79.8245 176.924 112.909 176.924 112.909C176.924 112.909 156.62 109.624 143.74 106.826C130.687 103.99 110.557 98.4621 110.557 98.4621C110.557 98.4621 107.309 88.1589 110.557 83.2545C112.055 80.9937 113.206 79.5745 115.719 78.6922Z" fill="#161824"/>
<path d="M61.1515 179.822L88.4354 312.889L97.2842 309.847L122.356 306.045L159.963 298.442L135.629 104.544L53.04 112.908L61.1515 179.822Z" fill="#BFBCBC"/>
<path d="M107.562 94.6258C125.052 86.0956 136.392 104.376 155.493 107.552C176.562 111.055 210.061 110.594 210.061 110.594C210.061 110.594 209.02 115.873 210.061 118.958C211.672 123.734 216.74 123.25 219.647 127.322C224.078 133.531 218.493 142.207 224.809 146.332C227.583 148.143 230.599 146.219 232.92 148.613C235.242 151.007 233.557 154.007 235.132 156.977C236.602 159.746 239.931 159.926 240.294 163.06C240.543 165.207 238.135 166.34 238.82 168.383C239.947 171.751 244.216 168.239 247.668 168.383C253.166 168.612 256.179 170.061 261.679 169.904C266.035 169.779 272.74 168.383 272.74 168.383L300.808 153.97C300.808 153.97 305.24 148.605 308.92 146.332C312.588 144.065 315.413 140.602 319.243 142.564C323.247 144.615 322.193 153.97 322.193 153.97C322.193 153.97 337.678 152.449 343.578 153.97C346.076 154.614 346.002 158.688 345.79 159.293C345.002 161.538 341.365 163.094 341.365 163.094C341.365 163.094 344.237 165.861 343.578 169.177C342.877 172.698 337.678 172.219 337.678 172.219C337.678 172.219 339.644 176.27 338.416 178.302C337.528 179.772 335.466 180.583 335.466 180.583C335.466 180.583 336.786 182.306 336.941 183.625C337.336 186.986 329.567 188.947 329.567 188.947L322.193 190.468L304.448 224.651C304.448 224.651 316.75 232.717 321.409 240.619C325.478 247.522 325.771 252.468 327.308 260.389C330.985 279.336 325.258 290.493 325.096 309.814C325.058 314.268 325.319 316.771 325.096 321.22C324.629 330.532 322.102 335.495 321.409 344.792C320.768 353.378 326.104 359.721 321.409 366.843C309.61 366.843 300.379 360.882 286.751 357.718C278.431 355.787 268.153 350.148 268.153 350.148C268.153 350.148 267.168 338.358 267.578 328.824C269.26 289.772 258.729 229.974 258.729 229.974C258.729 229.974 273.117 233.93 279.377 240.619C289.93 251.896 287.563 264.57 286.013 280.159C284.057 299.845 268.462 306.392 264.629 325.782C261.522 341.494 275.747 355.632 264.629 366.843C261.027 370.474 258.23 371.719 253.568 373.686C249.172 375.54 246.45 375.901 241.769 376.728C231.267 378.583 223.609 382.403 214.485 376.728C208.708 373.134 205.824 369.543 203.424 363.041C200.344 354.697 203.971 349.106 204.899 340.229C206.213 327.658 210.061 317.418 210.061 308.293C203.542 309.114 203.27 314.816 196.788 315.897C192.767 316.568 189.722 316.713 185.727 315.897C179.557 314.637 177.615 311.335 170.978 312.856C170.194 313.909 170.357 314.902 169.504 315.897C167.023 318.788 163.401 317.312 159.917 315.897C158.355 315.262 157.76 312.902 156.23 313.616C155.057 314.163 155.546 315.609 154.756 316.657C151.573 320.877 146.612 317.428 141.482 316.657C114.687 312.632 107.802 284.215 103.875 256.587C101.908 242.75 111.293 233.763 106.087 220.849C103.014 213.226 97.2325 211.452 93.5511 204.121C87.3688 191.809 89.0227 182.936 87.6519 169.143C85.6554 149.056 78.8887 135.495 87.6519 117.437C92.8532 106.719 97.0549 99.7502 107.562 94.6258Z" fill="#E1E7F1"/>
<path d="M210.06 118.958C209.019 115.873 210.06 110.594 210.06 110.594C210.06 110.594 202.539 106.313 198.309 108.347C194.11 110.364 192.294 114.183 192.409 118.958C192.557 125.058 200.975 124.571 202.733 130.398C204.846 137.4 196.735 141.461 198.309 148.613C200.295 157.641 214.195 155.424 215.269 164.615C215.999 170.868 207.96 173.908 210.06 179.822C212.665 187.159 221.542 188.895 228.542 185.906C233.448 183.81 235.443 180.354 237.391 175.26C238.368 172.705 239.503 170.426 238.819 168.383C238.134 166.339 240.542 165.207 240.293 163.06C239.931 159.926 236.601 159.746 235.132 156.977C233.556 154.007 235.241 151.007 232.919 148.613C230.598 146.219 227.582 148.143 224.808 146.332C218.492 142.207 224.078 133.531 219.646 127.322C216.739 123.249 211.671 123.734 210.06 118.958Z" fill="white"/>
<path d="M308.919 146.331C305.239 148.604 300.808 153.969 300.808 153.969C300.808 153.969 298.063 160.928 300.808 163.093C303.365 165.111 306.01 162.995 308.919 161.573C312.052 160.04 313.825 158.588 315.556 155.49C316.329 154.104 316.939 153.284 317.03 151.688C317.137 149.813 316.792 148.505 315.556 147.125C314.851 146.339 314.331 145.936 313.343 145.605C311.68 145.046 308.919 146.331 308.919 146.331Z" fill="#DDE4F0"/>
<path d="M247.668 168.382C244.216 168.238 239.947 171.75 238.82 168.382C238.82 168.382 231.735 169.815 232.23 172.978C232.588 175.268 235.822 174.626 236.654 176.78C237.637 179.324 234.324 181.032 235.179 183.624C236.107 186.435 238.505 186.855 241.079 188.186C247.005 191.251 251.437 188.325 258.039 188.946C262.663 189.382 265.495 192.164 269.837 190.467C274.632 188.593 276.312 184.832 277.949 179.822C279.512 175.038 282.775 167.744 277.949 166.895C275.868 166.529 272.74 168.382 272.74 168.382C272.74 168.382 266.035 169.778 261.679 169.902C256.18 170.059 253.166 168.611 247.668 168.382Z" fill="#DDE4F0"/>
<path d="M321.407 240.62C316.747 232.717 304.446 224.652 304.446 224.652C299.67 231.12 309.638 236.162 312.605 243.695C316.407 253.35 320.044 258.462 321.407 268.788C323.13 281.852 317.733 289.081 317.029 302.245C316.537 311.436 318.179 316.688 317.029 325.816C316.077 333.375 314.032 337.314 312.605 344.792C311.587 350.121 308.425 353.474 310.392 358.513C312.385 363.615 312.605 366.843 321.407 366.843C326.102 359.721 320.766 353.378 321.407 344.792C322.1 335.495 324.627 330.532 325.094 321.22C325.317 316.772 325.056 314.268 325.094 309.814C325.255 290.493 330.982 279.336 327.306 260.39C325.769 252.469 325.476 247.522 321.407 240.62Z" fill="white"/>
<path d="M286.014 280.158C287.563 264.569 289.93 251.895 279.377 240.619C273.117 233.929 258.73 229.973 258.73 229.973C258.73 229.973 265.537 224.862 270.575 224.685C279.209 224.381 282.941 231.362 288.273 238.372C296.037 248.577 297.382 257.34 297.122 270.308C296.925 280.1 295.527 285.909 291.222 294.64C288.688 299.779 285.433 301.561 283.111 306.806C280.295 313.168 279.081 317.308 279.377 324.295C279.625 330.128 281.804 333.061 283.111 338.742C284.806 346.108 292.199 352.623 286.798 357.752C286.798 357.752 273.477 356.158 268.363 350.148C261.143 341.663 267.626 321.253 267.626 321.253C267.626 321.253 267.515 318.006 267.626 315.931C268.47 300.144 284.464 295.748 286.014 280.158Z" fill="#D3D9E4"/>
<path d="M103.874 256.586C107.801 284.214 114.685 312.631 141.481 316.656C146.611 317.427 151.572 320.876 154.755 316.656C155.545 315.608 155.056 314.162 156.229 313.615C157.759 312.901 158.354 315.261 159.916 315.896L159.929 315.901C163.409 317.315 167.025 318.784 169.503 315.896C170.356 314.901 170.193 313.907 170.977 312.854C177.614 311.334 179.556 314.636 185.726 315.896C189.721 316.712 192.766 316.567 196.787 315.896C203.269 314.815 203.541 309.113 210.06 308.292C210.06 317.417 206.212 327.657 204.898 340.228C203.97 349.105 200.343 354.695 203.423 363.04C205.823 369.542 208.707 373.133 214.484 376.727C220.262 380.321 225.592 382.281 248.452 375.438C250.5 369.901 239.856 355.717 238.128 347.106C236.4 338.494 242.068 337.468 240.34 328.857C238.612 320.245 249.271 306.839 248.452 293.879C247.49 278.676 251.961 277.434 240.34 268.026C231.443 260.823 220.961 259.702 210.06 256.586C203.999 254.854 191.913 253.981 185.726 252.818C174.393 250.689 168.043 243.319 157.014 239.892C149.861 237.669 139.296 238.906 132.679 235.33C122.277 229.707 106.086 220.848 106.086 220.848C111.292 233.762 101.907 242.749 103.874 256.586Z" fill="url(#paint0_linear_185_942)"/>
<g filter="url(#filter1_f_185_942)">
<path d="M171.762 230.767C177.446 229.001 185.772 229.246 191.672 230.007C193.138 231.159 191.081 228.966 191.672 230.767C192.225 232.455 190.12 233.683 189.46 235.329C187.914 239.18 183.143 235.54 179.136 236.089C171.174 237.182 167.258 241.491 159.226 241.412C155.154 241.372 152.549 241.761 148.902 239.891C140.331 235.496 162.596 233.614 171.762 230.767Z" fill="#484A4D"/>
</g>
<path d="M286.011 280.158C286.011 280.158 293.432 254.34 279.374 240.619C272.827 234.228 255.824 228.487 255.824 228.487C255.824 228.487 256.527 235.176 258.036 239.132C261.102 247.164 268.225 248.181 272.047 255.86C277.106 266.024 278.959 273.623 276.472 284.755C274.44 293.846 266.841 296.24 264.626 305.285C262.726 313.046 264.626 325.781 264.626 325.781C264.626 325.781 265.271 315.691 269.097 308.327C272.581 301.623 278.12 296.293 282.371 290.077C286.011 284.755 286.011 280.158 286.011 280.158Z" fill="white"/>
<g filter="url(#filter2_f_185_942)">
<path d="M254.351 225.065L310.394 223.164L303.757 226.966L253.614 230.768L254.351 225.065Z" fill="#3E3F40"/>
<path d="M254.351 225.065L182.086 230.008L180.611 231.529L253.614 230.768L254.351 225.065Z" fill="#3E3F40"/>
</g>
<path d="M184.296 225.445H255.824L311.129 223.924C311.481 224.651 311.008 225.515 310.223 225.579L255.824 230.007H182.084C182.084 230.007 181.512 227.997 182.084 226.966C182.599 226.036 184.296 225.445 184.296 225.445Z" fill="#BDC1C7"/>
<path d="M255.824 230.007L310.223 225.579C311.009 225.515 311.482 224.651 311.129 223.924L255.824 225.445V230.007Z" fill="#C5C9D0"/>
<path d="M220.06 225.445H184.296L259.511 212.519L255.824 225.445H220.06Z" fill="#D1D5DB"/>
<path d="M87.6973 169.177C89.0681 182.969 87.4143 191.842 93.5965 204.154C97.2779 211.486 103.059 213.259 106.132 220.883C109.206 228.506 116.424 233.025 125.305 236.851C140.535 243.411 151.46 236.937 167.337 232.288C182.332 227.897 203.47 214.799 203.47 214.799L212.319 223.164C212.319 223.164 218.555 219.353 222.642 217.081C227.743 214.245 230.632 212.693 235.915 210.237C241.571 207.609 250.664 204.154 250.664 204.154C252.078 201.5 253.178 199.382 252.138 196.55C251.198 193.99 246.977 191.988 246.977 191.988C246.977 191.988 251.682 187.534 250.664 184.384C250.02 182.392 246.977 180.582 246.977 180.582C246.977 180.582 248.574 175.449 246.977 172.979C245.548 170.769 243.649 169.79 241.077 169.937C238.759 170.07 235.915 172.979 235.915 172.979C235.915 172.979 238.199 166.528 235.915 163.854C234.289 161.95 232.446 161.972 230.016 161.573C223.519 160.506 221.047 167.479 214.531 168.416C211.108 168.909 206.815 171.782 205.682 168.416C205.107 166.71 205.53 165.41 206.419 163.854C207.039 162.768 207.796 162.492 208.632 161.573C210.17 159.881 211.899 159.289 212.319 157.01C212.872 154.007 211.348 151.391 208.632 150.167C205.543 148.775 203.341 151.305 200.52 153.209C195.841 156.366 194.889 160.207 192.409 165.375C191.033 168.241 191.348 170.442 189.459 172.979C185.121 178.806 178.534 175.262 171.761 177.541C168.557 178.619 166.218 178.332 163.65 180.582C162.245 181.814 162.539 184.244 160.7 184.384C159.416 184.482 158.977 183.27 157.751 182.863C155.283 182.046 153.682 183.223 151.114 182.863C148.135 182.447 145.666 182.963 143.74 180.582C142.218 178.702 142.083 176.941 142.265 174.499C142.405 172.627 142.27 171.046 143.74 169.937C144.698 169.214 145.788 169.973 146.69 169.177C148.22 167.824 147.645 165.684 146.69 163.854C146.11 162.745 145.073 162.673 144.477 161.573C143.205 159.225 143.679 156.902 145.215 154.729C145.695 154.051 146.252 153.917 146.69 153.209C148.115 150.899 145.628 149.07 145.215 146.365C144.184 139.619 147.591 135.251 145.215 128.876C141.987 120.217 135.78 117.338 127.517 113.669C119.774 110.231 114.506 109.62 106.132 110.627C98.5323 111.542 87.6973 117.471 87.6973 117.471C78.9342 135.528 85.7009 149.089 87.6973 169.177Z" fill="#EEF4FF"/>
<path d="M93.5962 204.154C97.2776 211.486 103.059 213.259 106.132 220.883C109.205 228.506 116.424 233.025 125.305 236.85C140.534 243.411 151.459 236.937 167.337 232.288L152.588 230.767C152.588 230.767 138.272 232.406 130.466 228.486C123.69 225.084 122.619 219.272 116.456 214.799C108.445 208.986 93.5962 204.154 93.5962 204.154Z" fill="#C7D1E4"/>
<path d="M146.689 153.209C148.115 150.899 145.145 149.102 145.215 146.365C145.277 143.918 144.262 141.961 144.477 139.522C145.215 131.158 133.471 116.253 133.471 116.253C133.471 116.253 146.689 121.921 153.326 142.564C154.98 147.707 154.712 150.899 155.538 156.25C156.134 160.108 157.662 162.287 157.013 166.135C156.26 170.601 152.565 171.742 151.114 176.02C149.958 179.43 153.057 184.35 149.639 185.145C146.83 185.798 143.74 180.583 143.74 180.583C142.218 178.703 142.083 176.941 142.265 174.5C142.405 172.627 142.27 171.047 143.74 169.937C144.698 169.214 145.788 169.974 146.689 169.177C148.22 167.824 147.645 165.684 146.689 163.854C146.11 162.745 145.073 162.673 144.477 161.573C143.205 159.226 143.679 156.903 145.215 154.73C145.694 154.051 146.252 153.917 146.689 153.209Z" fill="#D3D9E4"/>
<path d="M143.74 180.583C145.666 182.964 148.135 182.448 151.114 182.864C153.682 183.224 155.283 182.047 157.751 182.864C158.977 183.271 159.416 184.483 160.7 184.385C162.539 184.245 162.245 181.815 163.65 180.583C166.218 178.333 168.557 178.62 171.761 177.542C178.534 175.263 185.121 178.807 189.459 172.979C191.347 170.443 191.033 168.242 192.409 165.376C194.888 160.208 195.841 156.367 200.52 153.21C203.34 151.306 205.577 148.698 208.631 150.168C210.107 150.878 211.196 151.577 211.581 153.209C212.314 156.317 206.5 154.097 204.207 156.251C201.44 158.851 200.52 165.376 200.52 165.376C200.52 165.376 204.003 168.76 206.419 170.698C210.201 173.734 212.96 174.506 216.742 177.542C219.158 179.481 220.984 180.211 222.642 182.864C224.57 185.953 224.363 188.351 224.854 191.989C225.489 196.695 221.671 200.72 224.854 204.155C227.314 206.811 230.164 206.014 233.703 206.436C240.338 207.228 250.663 204.155 250.663 204.155C250.663 204.155 241.57 207.61 235.915 210.238C231.416 213.116 227.332 214.55 222.642 217.082C218.554 219.354 212.318 223.165 212.318 223.165L203.469 214.801C203.469 214.801 182.331 227.899 167.336 232.289C151.459 236.939 140.534 243.413 125.305 236.852C116.424 233.026 109.205 228.507 106.132 220.884L93.5961 204.155C93.5961 204.155 90.0004 197.144 89.1717 190.468C88.1453 182.2 87.6968 169.178 87.6968 169.178C87.6968 169.178 77.5091 131.195 87.6968 117.472C87.6968 117.472 98.5319 111.543 106.132 110.628C113.732 109.714 110.541 118.633 111.294 124.315C112.159 130.848 109.266 134.453 109.082 141.044C108.848 149.402 109.192 154.258 111.294 162.334C112.9 168.509 114.889 171.597 117.193 177.532C118.009 180.279 142.358 183.077 143.74 180.583Z" fill="#D2D8E5"/>
<path d="M125.306 236.851C140.536 243.412 151.461 236.938 167.338 232.289C167.338 232.289 151.734 236.167 141.529 236.851C135.207 237.275 125.306 236.851 125.306 236.851Z" fill="#C2C7D1"/>
<path d="M212.318 223.164C212.318 223.164 217.08 219.353 221.167 217.081C221.167 217.081 212.592 204.88 207.894 196.55C203.037 187.941 197.57 174.499 197.57 174.499L185.771 181.343C185.771 181.343 188.4 194.501 192.408 201.873C195.422 207.416 200.73 211.683 204.944 216.32C208.149 219.848 212.318 223.164 212.318 223.164Z" fill="#C6C9CF"/>
<path d="M208.632 161.573C210.171 159.881 211.9 159.289 212.319 157.011C212.32 149.407 207.895 150.928 204.946 153.969C201.484 157.539 200.22 164.17 197.572 168.416C195.235 172.163 188.723 180.583 188.723 180.583C188.723 180.583 194.84 176.485 196.834 175.26C199.168 173.826 199.364 170.004 201.996 170.697C203.391 171.065 203.654 172.322 204.946 172.979C208.045 174.555 210.398 173.635 213.794 172.979C219.623 171.852 222.957 169.781 227.068 165.375C228.346 164.004 236.515 162.64 230.017 161.573C223.52 160.506 221.048 167.479 214.532 168.416C211.109 168.909 206.816 171.782 205.683 168.416C205.108 166.71 205.531 165.41 206.42 163.854C207.04 162.768 207.796 162.492 208.632 161.573Z" fill="#C6C9CF"/>
<path d="M212.319 223.164C212.319 223.164 218.555 219.353 222.642 217.081C222.642 217.081 214.068 204.88 209.369 196.551C204.512 187.941 198.308 173.739 198.308 173.739L187.247 181.343C187.247 181.343 189.876 194.502 193.884 201.873C196.897 207.417 199.256 210.162 203.47 214.8C206.675 218.328 212.319 223.164 212.319 223.164Z" fill="#CBD1DE"/>
<path d="M151.116 50.5579C158.009 35.2858 166.516 27.1169 182.825 22.4238C190.058 20.3423 194.832 18.587 201.997 20.903C208.099 22.875 210.955 25.9233 215.271 30.7882C224.06 40.6963 227.069 55.0964 227.069 63.4842C227.069 68.8069 227.223 92.7857 216.008 104.545C213.422 107.256 211.917 108.895 208.634 110.628C201.708 114.284 188.724 111.388 188.724 111.388C188.724 111.388 162.768 96.8661 147.429 83.2543C145.955 73.3694 148.028 57.4013 151.116 50.5579Z" fill="#443D33"/>
<g filter="url(#filter3_f_185_942)">
<path d="M154.802 56.6401C143.741 78.6911 147.428 83.2537 147.428 83.2537C170.068 77.6592 180.259 77.7714 204.946 78.6911C198.181 58.4048 199.185 45.3197 198.309 23.9437C187.25 23.2091 181.368 29.2566 172.5 36.1098C164.175 42.5429 159.582 47.1121 154.802 56.6401Z" fill="#141417"/>
</g>
<path d="M143.003 9.49698C166.935 -2.84311 197.586 -4.58317 210.845 19.3819C213.15 23.5489 215.269 30.7877 215.269 30.7877C215.269 30.7877 208.097 22.8744 201.996 20.9024C194.83 18.5864 190.056 20.3417 182.823 22.4232C166.515 27.1164 158.008 35.2853 151.115 50.5573C148.026 57.4007 145.953 73.3688 147.428 83.2537C162.767 96.8655 188.722 111.388 188.722 111.388C188.722 111.388 201.706 114.284 208.632 110.627C211.915 108.895 216.006 104.544 216.006 104.544C216.006 104.544 212.129 109.996 208.632 112.148C204.314 114.806 201.105 114.723 196.096 115.19C190.926 115.671 187.861 115.721 182.823 114.429C177.572 113.083 175.206 112.192 170.287 109.867C159.734 104.88 137.104 93.1387 137.104 93.1387C137.104 93.1387 111.194 83.2537 109.82 69.5671C107.126 42.7128 119.586 21.5719 143.003 9.49698Z" fill="#EEF4FF"/>
<path d="M215.271 30.7883C215.271 30.7883 213.152 23.5495 210.846 19.3825C210.846 19.3825 207.823 13.2209 204.209 11.7784C202.84 11.2317 201.973 10.7833 200.522 11.018C199.25 11.2238 197.803 11.2322 197.573 12.5387C197.315 13.9995 200.497 13.3354 200.522 14.8199C200.541 15.8904 199.211 16.0437 199.048 17.101C198.757 18.9787 195.896 18.931 201.997 20.903C208.099 22.875 215.271 30.7883 215.271 30.7883Z" fill="white"/>
<path d="M143.003 9.49677C119.586 21.5717 107.126 42.7126 109.82 69.5669C111.194 83.2535 137.104 93.1385 137.104 93.1385C137.104 93.1385 159.734 104.879 170.287 109.867C175.206 112.192 177.572 113.083 182.823 114.429C187.861 115.721 196.096 115.19 196.096 115.19L188.722 111.388C188.722 111.388 162.767 96.8653 147.428 83.2535C145.953 73.3686 148.026 57.4005 151.115 50.5571C158.008 35.2851 166.515 27.1162 182.823 22.423C199.132 17.7298 169.436 14.07 159.964 14.0587C154.992 14.0527 151.658 19.032 147.428 16.3398C144.777 14.653 143.003 9.49677 143.003 9.49677Z" fill="#D2D8E5"/>
<path d="M151.117 50.5579C158.01 35.2858 166.516 27.1169 182.825 22.4238C190.058 20.3423 194.832 18.587 201.997 20.903C208.099 22.875 215.271 30.7882 215.271 30.7882C215.271 30.7882 205.408 24.4158 198.31 23.9443C187.251 23.2097 181.37 29.2573 172.501 36.1104C164.176 42.5436 159.821 47.244 154.804 56.6408C149.747 66.1093 147.429 83.2541 147.429 83.2541C145.954 73.3692 148.028 57.4013 151.117 50.5579Z" fill="#BFC5D1"/>
<path d="M201.996 20.9038C208.098 22.8758 215.269 30.789 215.269 30.789C215.269 30.789 205.407 24.4166 198.309 23.9451C198.309 23.9451 198.449 23.0004 198.309 22.4242C198.013 21.2021 196.435 21.3538 196.097 20.1434C198.309 19.3822 201.996 20.9038 201.996 20.9038Z" fill="#E9EEF7"/>
<path d="M185.036 94.6595C186.615 91.1597 188.723 85.5349 188.723 85.5349C192.76 86.9561 195.66 87.2936 201.996 87.0557C201.996 87.0557 199.176 93.7296 196.834 97.7011C195.008 100.798 191.672 105.305 191.672 105.305C188.327 104.167 186.262 103.206 182.086 100.743C182.086 100.743 183.949 97.0675 185.036 94.6595Z" fill="#7A6D58"/>
<path d="M147.429 83.2536C170.069 77.6592 180.259 77.7714 204.946 78.691H211.583V99.9818L208.633 110.627C201.707 114.283 188.723 111.388 188.723 111.388C188.723 111.388 162.768 96.8655 147.429 83.2536Z" fill="#C7B690" fill-opacity="0.1"/>
<g filter="url(#filter4_f_185_942)">
<path d="M222.554 62.4598C223.323 75.5017 218.066 88.3087 213.793 88.5766C209.52 88.8446 202.763 76.5258 201.994 63.4839C201.225 50.442 202.146 34.8574 206.419 34.5895C210.692 34.3216 221.785 49.4179 222.554 62.4598Z" fill="#F9FAF4" fill-opacity="0.8"/>
</g>
<path d="M188.723 111.387C188.723 111.387 162.768 96.8651 147.429 83.2533L189.461 108.346C189.461 108.346 201.276 110.939 208.633 108.346C211.68 107.272 216.007 104.544 216.007 104.544C216.007 104.544 211.916 108.894 208.633 110.627C201.707 114.283 188.723 111.387 188.723 111.387Z" fill="#E4E7ED"/>
<path d="M221.905 180.582L235.915 172.979C235.915 172.979 232.656 175.543 230.754 176.78C228.131 178.487 228.115 178.303 226.329 179.062C224.645 179.777 221.905 180.582 221.905 180.582Z" fill="#D3D9E4"/>
<path d="M227.803 189.707L246.976 180.582C246.976 180.582 242.515 183.66 239.912 185.145C236.323 187.193 236.302 186.972 233.858 187.882C231.553 188.74 227.803 189.707 227.803 189.707Z" fill="#D3D9E4"/>
<path d="M227.803 201.112L246.976 191.988C246.976 191.988 242.515 195.065 239.912 196.55C236.323 198.598 236.302 198.377 233.858 199.288C231.553 200.146 227.803 201.112 227.803 201.112Z" fill="#D3D9E4"/>
<ellipse cx="0.744265" cy="3.01459" rx="0.744265" ry="3.01459" transform="matrix(0.831344 -0.555758 0.532243 0.846591 207.156 150.995)" fill="#010005"/>
<ellipse cx="1.39573" cy="4.23546" rx="1.39573" ry="4.23546" transform="matrix(0.831346 -0.555755 0.532246 0.84659 229.823 163.885)" fill="#010005"/>
<ellipse cx="1.34325" cy="4.23548" rx="1.34325" ry="4.23548" transform="matrix(0.83135 -0.55575 0.532251 0.846586 240.236 171.431)" fill="#010005"/>
<ellipse cx="1.13036" cy="2.9275" rx="1.13036" ry="2.9275" transform="matrix(0.831349 -0.555751 0.53225 0.846587 246.11 181.839)" fill="#010005"/>
<ellipse cx="1.11202" cy="3.18905" rx="1.11202" ry="3.18905" transform="matrix(0.831351 -0.555747 0.532254 0.846585 247.336 195.063)" fill="#010005"/>
<path d="M279.063 155.7C279.278 155.116 279.829 154.729 280.446 154.729H334.061C335.094 154.729 335.807 155.773 335.44 156.748L310.728 222.344C310.523 222.889 310.021 223.263 309.444 223.3L256.298 228.29C255.998 228.318 255.702 228.211 255.505 227.983C254.995 227.391 254.077 226.185 254.349 225.445L279.063 155.7Z" fill="#A3A4A9"/>
<path d="M328.102 173.965L332.416 172.743L337.676 172.169C337.676 172.169 334.336 172.599 333.179 173.04C331.585 173.649 331.606 173.541 330.582 173.722C329.617 173.893 328.102 173.965 328.102 173.965Z" fill="#D3D9E4"/>
<path d="M326.32 182.376L330.634 181.156L335.464 180.582C335.464 180.582 332.554 181.012 331.397 181.453C329.803 182.061 329.823 181.953 328.8 182.134C327.835 182.305 326.32 182.376 326.32 182.376Z" fill="#D3D9E4"/>
<path d="M332.526 164.84C332.526 164.84 335.124 163.96 336.84 163.619C338.585 163.272 341.362 163.094 341.362 163.094C341.362 163.094 339.213 163.526 337.603 163.916C336.584 164.162 336.029 164.416 335.005 164.598C334.04 164.769 332.526 164.84 332.526 164.84Z" fill="#D3D9E4"/>
<path d="M280.541 155.721C280.755 155.125 281.307 154.729 281.923 154.729H335.538C336.571 154.729 337.284 155.795 336.917 156.791L312.206 223.77C312 224.327 311.498 224.709 310.922 224.747L256.619 228.336C255.553 228.407 254.77 227.322 255.142 226.29L280.541 155.721Z" fill="url(#paint1_linear_185_942)"/>
<ellipse cx="342.1" cy="157.771" rx="2.2122" ry="3.04153" fill="#010005"/>
<ellipse cx="339.89" cy="167.657" rx="2.94969" ry="3.80192" fill="#010005"/>
<ellipse cx="333.992" cy="183.623" rx="1.47483" ry="1.51943" fill="#010005"/>
<ellipse cx="336.201" cy="176.02" rx="2.2122" ry="3.04151" fill="#010005"/>
<path d="M223.38 384.636C223.38 383.697 224.188 382.978 225.089 383.112C229.352 383.745 240.673 385.222 248.452 384.365C251.935 383.982 260.604 382.845 260.604 382.845L258.48 396.531C258.48 396.531 251.935 397.669 248.452 398.052C240.36 398.943 228.435 397.309 224.609 396.726C223.895 396.617 223.38 395.985 223.38 395.24V384.636Z" fill="#DADBDF"/>
<path d="M209.704 427.071C209.1 426.572 208.969 425.684 209.423 425.037C212.024 421.325 220.596 409.574 228.541 404.134C238.99 396.981 258.952 393.489 258.952 393.489L257.3 404.134C257.3 404.134 241.982 408.335 233.703 414.019C227.091 418.559 219.536 427.774 216.939 431.066C216.42 431.724 215.48 431.836 214.838 431.306L209.704 427.071Z" fill="#EBECF1"/>
<path d="M13.2178 128.876L52.3009 111.388L53.0383 112.909L13.9559 130.398L13.2178 128.876Z" fill="#B6B2B2"/>
<path d="M13.9595 130.398L53.0418 112.909L61.1533 179.823L88.4372 312.89L48.6174 320.493C48.6174 320.493 43.5785 321.496 41.2434 319.733C38.955 318.005 38.2938 312.89 38.2938 312.89L14.1152 193.518C14.0117 193.007 13.9595 192.486 13.9595 191.964V130.398Z" fill="#CBCBCB"/>
<defs>
<filter id="filter0_f_185_942" x="249.398" y="400.376" width="104.925" height="44.2417" filterUnits="userSpaceOnUse" color-interpolation-filters="sRGB">
<feFlood flood-opacity="0" result="BackgroundImageFix"/>
<feBlend mode="normal" in="SourceGraphic" in2="BackgroundImageFix" result="shape"/>
<feGaussianBlur stdDeviation="1" result="effect1_foregroundBlur_185_942"/>
</filter>
<filter id="filter1_f_185_942" x="144.976" y="227.43" width="49.2349" height="15.9911" filterUnits="userSpaceOnUse" color-interpolation-filters="sRGB">
<feFlood flood-opacity="0" result="BackgroundImageFix"/>
<feBlend mode="normal" in="SourceGraphic" in2="BackgroundImageFix" result="shape"/>
<feGaussianBlur stdDeviation="1" result="effect1_foregroundBlur_185_942"/>
</filter>
<filter id="filter2_f_185_942" x="178.611" y="221.164" width="133.783" height="12.3642" filterUnits="userSpaceOnUse" color-interpolation-filters="sRGB">
<feFlood flood-opacity="0" result="BackgroundImageFix"/>
<feBlend mode="normal" in="SourceGraphic" in2="BackgroundImageFix" result="shape"/>
<feGaussianBlur stdDeviation="1" result="effect1_foregroundBlur_185_942"/>
</filter>
<filter id="filter3_f_185_942" x="142.838" y="19.8831" width="66.1074" height="67.3707" filterUnits="userSpaceOnUse" color-interpolation-filters="sRGB">
<feFlood flood-opacity="0" result="BackgroundImageFix"/>
<feBlend mode="normal" in="SourceGraphic" in2="BackgroundImageFix" result="shape"/>
<feGaussianBlur stdDeviation="2" result="effect1_foregroundBlur_185_942"/>
</filter>
<filter id="filter4_f_185_942" x="197.748" y="30.586" width="28.8818" height="61.9949" filterUnits="userSpaceOnUse" color-interpolation-filters="sRGB">
<feFlood flood-opacity="0" result="BackgroundImageFix"/>
<feBlend mode="normal" in="SourceGraphic" in2="BackgroundImageFix" result="shape"/>
<feGaussianBlur stdDeviation="2" result="effect1_foregroundBlur_185_942"/>
</filter>
<linearGradient id="paint0_linear_185_942" x1="235.916" y1="247.496" x2="100.038" y2="374.115" gradientUnits="userSpaceOnUse">
<stop stop-color="#BCC2CD"/>
<stop offset="1" stop-color="#707580"/>
</linearGradient>
<linearGradient id="paint1_linear_185_942" x1="336.94" y1="154.729" x2="252.215" y2="225.156" gradientUnits="userSpaceOnUse">
<stop stop-color="white"/>
<stop offset="1" stop-color="#D0D2D6"/>
</linearGradient>
</defs>
</svg>
